<svg id="Layer_1" data-name="Layer 1" xmlns="http://www.w3.org/2000/svg" viewBox="0 0 421.22 451.96"><defs><style>.cls-1{fill:#231f20;}</style></defs><title>bird_logo</title><path class="cls-1" d="M85.41,126.8v46.55H77.15V151.74H48.61v21.61H40.43V126.8h8.18v17.54H77.15V126.8h8.26m1-1H76.15v17.54H49.61V125.8H39.43v48.55H49.61V152.74H76.15v21.61H86.41V125.8Z"/><path class="cls-1" d="M124.55,175.13c-15.11,0-27.17-11.43-27.17-25.14s12.06-24.9,27.17-24.9c15.27,0,27.33,11.28,27.33,25S139.82,175.13,124.55,175.13Zm0-40.56c-9.08,0-16.6,7-16.6,15.43s7.52,15.43,16.6,15.43c9.24,0,16.76-6.89,16.76-15.35S133.79,134.57,124.55,134.57Z"/><path class="cls-1" d="M198.64,126.8v7.4H181.18v39.15h-8V134.2H155.69v-7.4h42.95m1-1H154.69v9.4h17.46v39.15h10V135.2h17.46v-9.4Z"/><path class="cls-1" d="M221.41,125.94A28.47,28.47,0,0,1,236,130.36v7.29c-2.67-1.64-8.21-4.55-14-4.55-1.83,0-4.33.33-5.86,1.9a4.45,4.45,0,0,0-1.25,3.35c.09,3.44,3.28,4.77,5.62,5.73l.77.33,5,2.2c6.87,2.9,11.46,6.19,11.53,12.87a13.42,13.42,0,0,1-3.76,9.95c-2.91,2.93-7.31,4.55-12.39,4.55-7.62,0-14-4.17-15.6-5.3v-7c5.57,3.5,10.88,5.34,15.45,5.34,4.87,0,7.9-2.14,8.12-5.69.37-4.5-4.31-6.54-7.43-7.9l-4.69-2c-6.55-2.81-10.9-6-10.9-12.71,0-7.17,6.47-12.78,14.74-12.78m0-1c-8.85,0-15.74,6.11-15.74,13.78,0,7.28,4.93,10.81,11.51,13.63l4.7,2c3.05,1.33,7.13,3.13,6.81,6.89s-4.15,4.78-7.13,4.78c-7.13,0-14.25-4.7-16.45-6.19v9.4c1.1.86,8.07,5.79,16.6,5.79,9.24,0,17.23-5.25,17.15-15.5-.08-7.52-5.64-11-12.14-13.78l-5-2.19c-2.35-1-5.72-2-5.79-5.17s2.9-4.23,6.11-4.23c6.5,0,13,4,15,5.4v-9.71c-1.17-.71-7.6-4.86-15.58-4.86Z"/><path class="cls-1" d="M265,126.64c10.17,0,13.8,6.68,13.8,12.94,0,7.53-5.67,12.78-13.8,12.78h-6.4v21h-8.18V126.64H265m-6.4,18.79h5.54c3.65,0,6.4-2.55,6.4-5.93a6.12,6.12,0,0,0-6.4-5.93h-5.54v11.87m6.4-19.79H249.44v48.71h10.18v-21H265c8.77,0,14.8-5.79,14.8-13.78,0-7.6-4.85-13.94-14.8-13.94Zm-5.4,18.79v-9.87h4.54a5.13,5.13,0,0,1,5.4,4.93c0,2.9-2.35,4.93-5.4,4.93Z"/><path class="cls-1" d="M314,175.13c-15.11,0-27.17-11.43-27.17-25.14s12.06-24.9,27.17-24.9c15.27,0,27.33,11.28,27.33,25S329.24,175.13,314,175.13Zm0-40.56c-9.08,0-16.6,7-16.6,15.43s7.52,15.43,16.6,15.43c9.24,0,16.76-6.89,16.76-15.35S323.21,134.57,314,134.57Z"/><path class="cls-1" d="M388.06,126.8v7.4H370.6v39.15h-8V134.2H345.11v-7.4h42.95m1-1H344.11v9.4h17.46v39.15h10V135.2h17.46v-9.4Z"/><path class="cls-1" d="M380.28,280.88l-14.51,9a96.17,96.17,0,0,0-82.62-47c-31.8,0-63.67,19.07-81.18,42.93a95.88,95.88,0,0,0-9.8-13.59l0,0a96,96,0,0,0-150.33,6L28.2,267.8a113,113,0,0,1,91.15-46.1c36,0,63.82,12.44,83.46,37.58a113.16,113.16,0,0,1,177.47,21.6Z"/><path class="cls-1" d="M192.17,272.14l9.8,13.59A95.88,95.88,0,0,0,192.17,272.14Z"/><path class="cls-1" d="M357.38,295.12l-14.49,8.94a69.38,69.38,0,0,0-59.2-33.67c-33.36-.26-81.59,57.35-81.59,57.35l-.15-.25c-12.26-20.24-57-61.2-82.06-61.2a68.85,68.85,0,0,0-55.5,28.11L50.8,284.14a85.76,85.76,0,0,1,69.09-34.85c31.24,0,67.85,26.76,82.92,51.72,15.68-21.14,60.48-47.62,80.88-47.62A85.86,85.86,0,0,1,357.38,295.12Z"/><path class="cls-1" d="M201.84,375a13.82,13.82,0,1,0,13.82,13.82A13.82,13.82,0,0,0,201.84,375Z"/><path class="cls-1" d="M333,311.14l-14.48,8.93c-9.87-19.26-26.12-20.51-33.64-19-27.41,5.63-76,55.32-83.18,65v.1c-7.17-9.68-51.86-62.2-79.27-67.83-6.56-1.34-22.68,1.92-32.5,14.94l-.46-.35L76,302.78c11.32-16.69,30.71-23,46.44-21.41,31.49,3.14,69.46,48.16,79.87,62.06,10.71-14.16,51.28-56.21,82.58-59.33C302.9,282.31,321.9,287.56,333,311.14Z"/><path class="cls-1" d="M55.07,66c10.83,0,14.69,7.11,14.69,13.77,0,4.52-2.08,8-6.34,10.78l-1,.63.76.87,20.55,23.57H73.23L55.43,93.71l-.3-.37H48.35v22.24H39.56V66H55.07M48.35,85.88h5.81c3.83,0,6.73-2.68,6.73-6.23a6.42,6.42,0,0,0-6.73-6.23H48.35V85.88M55.07,65H38.56v51.62H49.35V94.34h5.31l18.09,22.24h13.2L64,91.35c4.15-2.66,6.8-6.31,6.8-11.62C70.76,71.68,65.61,65,55.07,65ZM49.35,84.88V74.42h4.81a5.44,5.44,0,0,1,5.73,5.23c0,3.07-2.49,5.23-5.73,5.23Z"/><path class="cls-1" d="M120.49,66.13l.13,8H99.56V85.3h13.28v7.46H99.56v14.86h23.07v8H90.93V66.13h29.55m1-1H89.93v51.46h33.7v-10H100.56V93.76h13.28V84.3H100.56V75.08h21.08l-.17-10Z"/><path class="cls-1" d="M166.21,66.13l.07,7.79H145V85.55h12.61v7.63H145v22.41h-8.62V66.13h29.79m1-1H135.42v51.46H146V94.17h12.61V84.55H146V74.92h21.25l-.08-9.79Z"/><path class="cls-1" d="M226.29,66.13V91.35c0,7.56-2.22,13.85-6.43,18.2s-10.42,6.7-17.88,6.7c-15.22,0-24.31-9.34-24.31-25V66.13h8.79V91.27c0,10.71,5.63,16.85,15.44,16.85s15.52-6.27,15.52-16.77V66.13h8.87m1-1H216.42V91.35c0,9.88-5.23,15.77-14.52,15.77s-14.44-5.89-14.44-15.85V65.13H176.67V91.27c0,16,9.38,26,25.31,26s25.31-10,25.31-25.89V65.13Z"/><path class="cls-1" d="M266.72,65.38a41.38,41.38,0,0,1,22.9,7V80C279,74.18,271.49,72.92,267,72.92c-10.58,0-19.25,8-19.34,17.85s9,17.85,20,17.85c4,0,9.69-1.1,13.95-4.17l.41-.3v-13h9v17a37.93,37.93,0,0,1-23.57,8.13c-15.74,0-28.55-11.43-28.55-25.47s12.47-25.39,27.8-25.39m0-1c-16,0-28.8,12-28.8,26.39s13.11,26.47,29.55,26.47A39,39,0,0,0,292,108.61V90.11H281v13.53a24,24,0,0,1-13.36,4c-10.29,0-19-7.47-19-16.85.08-9.21,8.38-16.85,18.34-16.85s20.91,6.22,23.65,7.8V71.85a42.51,42.51,0,0,0-23.9-7.47Z"/><path class="cls-1" d="M335.54,66.13l.13,8H314.6V85.3h13.28v7.46H314.6v14.86h23.07v8H306V66.13h29.55m1-1H305v51.46h33.69v-10H315.6V93.76h13.28V84.3H315.6V75.08h21.08l-.17-10Z"/><path class="cls-1" d="M381,66.13l.13,8H360.09V85.3h13.28v7.46H360.09v14.86h23.07v8H351.47V66.13H381m1-1H350.47v51.46h33.69v-10H361.09V93.76h13.28V84.3H361.09V75.08h21.08l-.17-10Z"/></svg>