<svg id="Layer_1" data-name="Layer 1" xmlns="http://www.w3.org/2000/svg" viewBox="0 0 421.22 451.96"><defs><style>.cls-1{fill:#231f20;}</style></defs><title>bird_logo</title><path class="cls-1" d="M76.15,174.35V152.74H49.61v21.61H39.43V125.8H49.61v17.54H76.15V125.8H86.41v48.55Z"/><path class="cls-1" d="M124.55,126.09c14.52,0,26.33,10.76,26.33,24s-11.81,24.06-26.33,24.06S98.37,163.31,98.37,150s11.74-23.9,26.17-23.9m0,40.33c9.79,0,17.76-7.33,17.76-16.35s-8-16.51-17.76-16.51-17.6,7.37-17.6,16.43,7.9,16.43,17.6,16.43m0-41.33c-15.11,0-27.17,11.28-27.17,24.9s12.06,25.14,27.17,25.14c15.27,0,27.33-11.43,27.33-25.06s-12.06-25-27.33-25Zm0,40.33c-9.08,0-16.6-6.89-16.6-15.43s7.52-15.43,16.6-15.43c9.24,0,16.76,7,16.76,15.51s-7.52,15.35-16.76,15.35Z"/><path class="cls-1" d="M182.18,135.2v39.15h-10V135.2H154.69v-9.4h44.95v9.4Z"/><path class="cls-1" d="M221.72,175c-8.54,0-15.5-4.93-16.6-5.79v-9.4c2.19,1.49,9.32,6.19,16.45,6.19,3,0,6.89-.94,7.13-4.78s-3.76-5.56-6.81-6.89l-4.7-2c-6.58-2.82-11.51-6.34-11.51-13.63,0-7.67,6.89-13.78,15.74-13.78,8,0,14.41,4.15,15.58,4.86v9.71c-2-1.41-8.46-5.4-15-5.4-3.21,0-6.19,1.1-6.11,4.23s3.45,4.15,5.79,5.17l5,2.19c6.5,2.74,12.06,6.26,12.14,13.78C239,169.73,231,175,221.72,175Z"/><path class="cls-1" d="M265,153.36h-5.4v21H249.44V125.64H265c9.95,0,14.8,6.34,14.8,13.94C279.82,147.57,273.8,153.36,265,153.36Zm-.86-18.79h-4.54v9.87h4.54c3.05,0,5.4-2,5.4-4.93A5.13,5.13,0,0,0,264.16,134.57Z"/><path class="cls-1" d="M314,126.09c14.52,0,26.33,10.76,26.33,24S328.48,174.13,314,174.13,287.79,163.31,287.79,150s11.74-23.9,26.17-23.9m0,40.33c9.79,0,17.76-7.33,17.76-16.35s-8-16.51-17.76-16.51-17.6,7.37-17.6,16.43,7.9,16.43,17.6,16.43m0-41.33c-15.11,0-27.17,11.28-27.17,24.9s12.06,25.14,27.17,25.14c15.27,0,27.33-11.43,27.33-25.06s-12.06-25-27.33-25Zm0,40.33c-9.08,0-16.6-6.89-16.6-15.43s7.52-15.43,16.6-15.43c9.24,0,16.76,7,16.76,15.51s-7.52,15.35-16.76,15.35Z"/><path class="cls-1" d="M371.6,135.2v39.15h-10V135.2H344.11v-9.4h44.95v9.4Z"/><path class="cls-1" d="M119.35,222.7c17.82,0,33.79,3.12,47.47,9.27A92.66,92.66,0,0,1,202,259.9l.7.89.8-.81a112.19,112.19,0,0,1,135.75-18.15,112.9,112.9,0,0,1,39.64,38.72l-12.81,7.9a97.94,97.94,0,0,0-34.28-33.55,96.94,96.94,0,0,0-48.68-13.1c-29.55,0-61.95,16.88-81.09,42.14A97.09,97.09,0,0,0,193,271.52l-.06-.08A97,97,0,0,0,74.76,248.55,98.22,98.22,0,0,0,41.6,276.67l-12-9.06a113.17,113.17,0,0,1,38.34-32.45,110.91,110.91,0,0,1,51.41-12.45m0-1A113,113,0,0,0,28.2,267.8l13.6,10.27a96,96,0,0,1,150.33-6l0,0a95.88,95.88,0,0,1,9.8,13.59c17.51-23.86,49.38-42.93,81.18-42.93a96.17,96.17,0,0,1,82.62,47l14.51-9a113.16,113.16,0,0,0-177.47-21.6c-19.64-25.14-47.41-37.58-83.46-37.58Z"/><path class="cls-1" d="M192.17,272.14l9.8,13.59a95.88,95.88,0,0,0-9.8-13.59Z"/><path class="cls-1" d="M119.89,250.29c30.58,0,67.12,26.49,82.06,51.24l.77,1.28.89-1.2c7.3-9.84,21.65-21.61,38.37-31.47s32.31-15.74,41.7-15.74A84.86,84.86,0,0,1,356,294.8l-12.79,7.89a70.17,70.17,0,0,0-24.52-23.8,71.13,71.13,0,0,0-35-9.49h-.24c-14.08,0-32.2,9.73-53.85,28.93a312.22,312.22,0,0,0-27.38,27.73c-6.69-10.56-20.94-25.48-35.9-37.53-10.77-8.68-31.13-23.23-46.45-23.23A70.25,70.25,0,0,0,64.19,293l-12-9.05a85.66,85.66,0,0,1,28.85-24.27,84,84,0,0,1,38.84-9.38m0-1A85.76,85.76,0,0,0,50.8,284.14L64.39,294.4a68.85,68.85,0,0,1,55.5-28.11c25,0,69.8,41,82.06,61.2l.15.25s48-57.36,81.36-57.35h.23a69.38,69.38,0,0,1,59.2,33.67l14.49-8.94a85.86,85.86,0,0,0-73.69-41.73c-20.4,0-65.2,26.48-80.88,47.62-15.07-25-51.68-51.72-82.92-51.72Z"/><path class="cls-1" d="M201.84,376A12.82,12.82,0,1,1,189,388.79,12.84,12.84,0,0,1,201.84,376m0-1a13.82,13.82,0,1,0,13.82,13.82A13.82,13.82,0,0,0,201.84,375Z"/><path class="cls-1" d="M117.71,282.14c1.55,0,3.11.08,4.62.23,13.3,1.33,29.2,10.32,47.27,26.74A268.62,268.62,0,0,1,201.5,344l.8,1.06.8-1.06c5.92-7.83,18.9-21.7,33.41-33.64,12.91-10.62,31.79-23.64,48.47-25.3,2.11-.21,4.2-.32,6.21-.32,18.49,0,32.11,8.74,40.52,26l-12.8,7.9c-9.26-17.15-23.37-19-29.09-19a26.08,26.08,0,0,0-5.14.49c-26.85,5.51-73.68,52.75-83,64.39a375.64,375.64,0,0,0-31.32-34.46c-13.62-13.22-33-29.63-47.72-32.66a16.94,16.94,0,0,0-3.35-.3,40,40,0,0,0-29.53,14.82l-12.39-9.35a49.2,49.2,0,0,1,40.36-20.42m0-1c-14.73,0-31.51,6.59-41.73,21.64L89.47,313l.46.35c8.49-11.26,21.69-15.22,29.35-15.22a16,16,0,0,1,3.15.28c27.41,5.63,72.1,58.15,79.27,67.83v-.1c7.17-9.68,55.77-59.37,83.18-65a24.87,24.87,0,0,1,4.94-.47c8.34,0,20.65,3.72,28.7,19.44L333,311.14c-9.81-20.84-25.79-27.36-41.81-27.36-2.11,0-4.22.11-6.31.32-31.3,3.12-71.87,45.17-82.58,59.33-10.41-13.9-48.38-58.92-79.87-62.06q-2.31-.23-4.71-.23Z"/><path class="cls-1" d="M72.75,116.58,54.66,94.34H49.35v22.24H38.56V65H55.07c10.54,0,15.69,6.72,15.69,14.77,0,5.31-2.66,9-6.8,11.62l22,25.23ZM54.16,74.42H49.35V84.88h4.81c3.24,0,5.73-2.16,5.73-5.23A5.44,5.44,0,0,0,54.16,74.42Z"/><path class="cls-1" d="M89.93,116.58V65.13h31.54l.17,10H100.56V84.3h13.28v9.46H100.56v12.86h23.07v10Z"/><path class="cls-1" d="M146,74.92v9.63h12.61v9.63H146v22.41H135.42V65.13H167.2l.08,9.79Z"/><path class="cls-1" d="M202,117.24c-15.93,0-25.31-10-25.31-26V65.13h10.79V91.27c0,10,5.06,15.85,14.44,15.85s14.52-5.89,14.52-15.77V65.13h10.87V91.35C227.29,107.2,217.83,117.24,202,117.24Z"/><path class="cls-1" d="M267.46,117.24c-16.43,0-29.55-12-29.55-26.47s12.78-26.39,28.8-26.39a42.51,42.51,0,0,1,23.9,7.47v9.88c-2.74-1.58-13.61-7.8-23.65-7.8s-18.26,7.64-18.34,16.85c0,9.38,8.71,16.85,19,16.85a24,24,0,0,0,13.36-4V90.11h11v18.51A39,39,0,0,1,267.46,117.24Z"/><path class="cls-1" d="M305,116.58V65.13h31.54l.17,10H315.6V84.3h13.28v9.46H315.6v12.86h23.07v10Z"/><path class="cls-1" d="M350.47,116.58V65.13H382l.17,10H361.09V84.3h13.28v9.46H361.09v12.86h23.07v10Z"/></svg>