<svg id="Layer_1" data-name="Layer 1" xmlns="http://www.w3.org/2000/svg" viewBox="0 0 421.22 451.96"><defs><style>.cls-1{font-size:78.31px;}.cls-1,.cls-6{fill:#231f20;font-family:EnglishGrotesque-Medium, EnglishGrotesque;}.cls-2,.cls-3,.cls-5{fill:#ed1c24;}.cls-2{letter-spacing:-0.04em;}.cls-3{letter-spacing:-0.04em;}.cls-4{letter-spacing:0em;}.cls-6{font-size:83px;}</style></defs><title>bird_logo</title><text class="cls-1" transform="translate(32.38 174.35)">H<tspan class="cls-2" x="61.08" y="0">O</tspan><tspan x="120.59" y="0">TSP</tspan><tspan class="cls-3" x="250.5" y="0">O</tspan><tspan class="cls-4" x="310.01" y="0">T</tspan></text><path class="cls-5" d="M202.81,259.29c-19.64-25.14-47.41-37.58-83.46-37.58a113,113,0,0,0-91.15,46.1l13.6,10.27a96,96,0,0,1,150.33-6l0,0a95.88,95.88,0,0,1,9.8,13.59L210.8,271A116,116,0,0,0,202.81,259.29Z"/><path class="cls-5" d="M283.15,225.81A113.29,113.29,0,0,0,192,271.91l.13.19,0,0,9.8,13.59c17.51-23.86,49.38-42.93,81.18-42.93a96.17,96.17,0,0,1,82.62,47l14.51-9A113.1,113.1,0,0,0,283.15,225.81Z"/><path class="cls-5" d="M119.89,249.3A85.76,85.76,0,0,0,50.8,284.15l13.59,10.26a68.85,68.85,0,0,1,55.5-28.11c25,0,69.8,41,82.06,61.2l.15.25.78-26.6C187.87,276.15,151.18,249.3,119.89,249.3Z"/><path class="cls-5" d="M283.69,253.4c-20.42,0-65.27,26.52-80.92,47.67l-.67,26.68s48.23-57.62,81.59-57.35a69.38,69.38,0,0,1,59.2,33.67l14.49-8.94A85.86,85.86,0,0,0,283.69,253.4Z"/><path class="cls-5" d="M201.84,375a13.82,13.82,0,1,0,13.82,13.82A13.82,13.82,0,0,0,201.84,375Z"/><path class="cls-5" d="M284.88,284.1c-31.3,3.12-71.87,45.17-82.58,59.33l-.28.37-.32,22.3c7.17-9.68,55.77-59.37,83.18-65,7.52-1.54,23.77-.29,33.64,19L333,311.14C321.9,287.56,302.9,282.31,284.88,284.1Z"/><path class="cls-5" d="M202.3,343.43c-10.41-13.9-48.38-58.92-79.87-62.06-15.73-1.56-35.12,4.72-46.44,21.41L89.47,313l.46.35c9.82-13,25.94-16.28,32.5-14.94,27.41,5.63,72.1,58.15,79.27,67.83v-.1l.69-22.55Z"/><text class="cls-6" transform="translate(31.09 116.58)">REFUGEE</text></svg>