<svg id="Layer_1" data-name="Layer 1" xmlns="http://www.w3.org/2000/svg" viewBox="0 0 421.22 451.96"><defs><style>.cls-1{fill:#231f20;}</style></defs><title>bird_logo</title><path class="cls-1" d="M76.15,174.35V152.74H49.61v21.61H39.43V125.8H49.61v17.54H76.15V125.8H86.41v48.55Z"/><path class="cls-1" d="M124.55,126.09c14.52,0,26.33,10.76,26.33,24s-11.81,24.06-26.33,24.06S98.37,163.31,98.37,150s11.74-23.9,26.17-23.9m0,40.33c9.79,0,17.76-7.33,17.76-16.35s-8-16.51-17.76-16.51-17.6,7.37-17.6,16.43,7.9,16.43,17.6,16.43m0-41.33c-15.11,0-27.17,11.28-27.17,24.9s12.06,25.14,27.17,25.14c15.27,0,27.33-11.43,27.33-25.06s-12.06-25-27.33-25Zm0,40.33c-9.08,0-16.6-6.89-16.6-15.43s7.52-15.43,16.6-15.43c9.24,0,16.76,7,16.76,15.51s-7.52,15.35-16.76,15.35Z"/><path class="cls-1" d="M182.18,135.2v39.15h-10V135.2H154.69v-9.4h44.95v9.4Z"/><path class="cls-1" d="M221.72,175c-8.54,0-15.5-4.93-16.6-5.79v-9.4c2.19,1.49,9.32,6.19,16.45,6.19,3,0,6.89-.94,7.13-4.78s-3.76-5.56-6.81-6.89l-4.7-2c-6.58-2.82-11.51-6.34-11.51-13.63,0-7.67,6.89-13.78,15.74-13.78,8,0,14.41,4.15,15.58,4.86v9.71c-2-1.41-8.46-5.4-15-5.4-3.21,0-6.19,1.1-6.11,4.23s3.45,4.15,5.79,5.17l5,2.19c6.5,2.74,12.06,6.26,12.14,13.78C239,169.73,231,175,221.72,175Z"/><path class="cls-1" d="M265,153.36h-5.4v21H249.44V125.64H265c9.95,0,14.8,6.34,14.8,13.94C279.82,147.57,273.8,153.36,265,153.36Zm-.86-18.79h-4.54v9.87h4.54c3.05,0,5.4-2,5.4-4.93A5.13,5.13,0,0,0,264.16,134.57Z"/><path class="cls-1" d="M314,126.09c14.52,0,26.33,10.76,26.33,24S328.48,174.13,314,174.13,287.79,163.31,287.79,150s11.74-23.9,26.17-23.9m0,40.33c9.79,0,17.76-7.33,17.76-16.35s-8-16.51-17.76-16.51-17.6,7.37-17.6,16.43,7.9,16.43,17.6,16.43m0-41.33c-15.11,0-27.17,11.28-27.17,24.9s12.06,25.14,27.17,25.14c15.27,0,27.33-11.43,27.33-25.06s-12.06-25-27.33-25Zm0,40.33c-9.08,0-16.6-6.89-16.6-15.43s7.52-15.43,16.6-15.43c9.24,0,16.76,7,16.76,15.51s-7.52,15.35-16.76,15.35Z"/><path class="cls-1" d="M371.6,135.2v39.15h-10V135.2H344.11v-9.4h44.95v9.4Z"/><path class="cls-1" d="M380.28,280.88l-14.51,9a96.17,96.17,0,0,0-82.62-47c-31.8,0-63.67,19.07-81.18,42.93a95.88,95.88,0,0,0-9.8-13.59l0,0a96,96,0,0,0-150.33,6L28.2,267.8a113,113,0,0,1,91.15-46.1c36,0,63.82,12.44,83.46,37.58a113.16,113.16,0,0,1,177.47,21.6Z"/><path class="cls-1" d="M192.17,272.14l9.8,13.59A95.88,95.88,0,0,0,192.17,272.14Z"/><path class="cls-1" d="M357.38,295.12l-14.49,8.94a69.38,69.38,0,0,0-59.2-33.67c-33.36-.26-81.59,57.35-81.59,57.35l-.15-.25c-12.26-20.24-57-61.2-82.06-61.2a68.85,68.85,0,0,0-55.5,28.11L50.8,284.14a85.76,85.76,0,0,1,69.09-34.85c31.24,0,67.85,26.76,82.92,51.72,15.68-21.14,60.48-47.62,80.88-47.62A85.86,85.86,0,0,1,357.38,295.12Z"/><path class="cls-1" d="M201.84,375a13.82,13.82,0,1,0,13.82,13.82A13.82,13.82,0,0,0,201.84,375Z"/><path class="cls-1" d="M333,311.14l-14.48,8.93c-9.87-19.26-26.12-20.51-33.64-19-27.41,5.63-76,55.32-83.18,65v.1c-7.17-9.68-51.86-62.2-79.27-67.83-6.56-1.34-22.68,1.92-32.5,14.94l-.46-.35L76,302.78c11.32-16.69,30.71-23,46.44-21.41,31.49,3.14,69.46,48.16,79.87,62.06,10.71-14.16,51.28-56.21,82.58-59.33C302.9,282.31,321.9,287.56,333,311.14Z"/><path class="cls-1" d="M72.75,116.58,54.66,94.34H49.35v22.24H38.56V65H55.07c10.54,0,15.69,6.72,15.69,14.77,0,5.31-2.66,9-6.8,11.62l22,25.23ZM54.16,74.42H49.35V84.88h4.81c3.24,0,5.73-2.16,5.73-5.23A5.44,5.44,0,0,0,54.16,74.42Z"/><path class="cls-1" d="M89.93,116.58V65.13h31.54l.17,10H100.56V84.3h13.28v9.46H100.56v12.86h23.07v10Z"/><path class="cls-1" d="M146,74.92v9.63h12.61v9.63H146v22.41H135.42V65.13H167.2l.08,9.79Z"/><path class="cls-1" d="M202,117.24c-15.93,0-25.31-10-25.31-26V65.13h10.79V91.27c0,10,5.06,15.85,14.44,15.85s14.52-5.89,14.52-15.77V65.13h10.87V91.35C227.29,107.2,217.83,117.24,202,117.24Z"/><path class="cls-1" d="M267.46,117.24c-16.43,0-29.55-12-29.55-26.47s12.78-26.39,28.8-26.39a42.51,42.51,0,0,1,23.9,7.47v9.88c-2.74-1.58-13.61-7.8-23.65-7.8s-18.26,7.64-18.34,16.85c0,9.38,8.71,16.85,19,16.85a24,24,0,0,0,13.36-4V90.11h11v18.51A39,39,0,0,1,267.46,117.24Z"/><path class="cls-1" d="M305,116.58V65.13h31.54l.17,10H315.6V84.3h13.28v9.46H315.6v12.86h23.07v10Z"/><path class="cls-1" d="M350.47,116.58V65.13H382l.17,10H361.09V84.3h13.28v9.46H361.09v12.86h23.07v10Z"/></svg>